<svg width="1919" height="50" viewBox="0 0 1919 50" fill="none" xmlns="http://www.w3.org/2000/svg">
<path d="M484.301 15.7772C488.623 16.5341 488.884 11.9749 490.743 11.0268C494.33 9.17544 532.162 5.66953 536.778 6.40553C538.46 6.67617 537.212 10.3832 538.268 11.3369C539.087 12.0945 541.596 11.0647 542.45 11.8908C543.817 13.2126 541.339 17.2554 548.121 17.3408L548.722 31.2747C541.989 32.321 544.8 35.9878 543.555 37.4952C542.31 39.0027 538.629 36.3911 538.422 43.7489L496.148 46.7547C495.226 39.7965 492.297 42.488 490.73 41.074C481.935 33.0438 484.643 28.2751 484.333 15.7749L484.301 15.7772Z" fill="#EC1D1D"/>
<path d="M484.301 15.7772C488.623 16.5341 488.884 11.9749 490.743 11.0268C494.33 9.17544 532.162 5.66953 536.778 6.40553C538.46 6.67617 537.212 10.3832 538.268 11.3369C539.087 12.0945 541.596 11.0647 542.45 11.8908C543.817 13.2126 541.339 17.2554 548.121 17.3408L548.722 31.2747C541.989 32.321 544.8 35.9878 543.555 37.4952C542.31 39.0027 538.629 36.3911 538.422 43.7489L496.148 46.7547C495.226 39.7965 492.297 42.488 490.73 41.074C481.935 33.0438 484.643 28.2751 484.333 15.7749L484.301 15.7772Z" fill="#EC1D1D"/>
<path d="M319.167 15.2959C323.113 15.9868 323.351 11.8252 325.048 10.9598C328.322 9.26992 362.855 6.06978 367.068 6.74159C368.603 6.98862 367.464 10.3724 368.428 11.2428C369.175 11.9344 371.466 10.9944 372.246 11.7485C373.493 12.955 371.231 16.6452 377.422 16.7231L377.971 29.4418C371.825 30.3968 374.39 33.7438 373.254 35.1198C372.118 36.4958 368.757 34.112 368.569 40.828L329.982 43.5717C329.14 37.2204 326.466 39.6771 325.036 38.3864C317.008 31.0565 319.48 26.7038 319.197 15.2938L319.167 15.2959Z" fill="#EC1D1D"/>
<path d="M319.167 15.2959C323.113 15.9868 323.351 11.8252 325.048 10.9598C328.322 9.26992 362.855 6.06978 367.068 6.74159C368.603 6.98862 367.464 10.3724 368.428 11.2428C369.175 11.9344 371.466 10.9944 372.246 11.7485C373.493 12.955 371.231 16.6452 377.422 16.7231L377.971 29.4418C371.825 30.3968 374.39 33.7438 373.254 35.1198C372.118 36.4958 368.757 34.112 368.569 40.828L329.982 43.5717C329.14 37.2204 326.466 39.6771 325.036 38.3864C317.008 31.0565 319.48 26.7038 319.197 15.2938L319.167 15.2959Z" fill="#EC1D1D"/>
<path d="M407.349 18.1336C407.88 17.5275 410.669 18.3238 411.574 17.2649C412.261 16.4701 411.432 13.9715 412.235 12.8132C416.894 6.05259 439.79 3.99836 447.368 5.62628C447.964 5.76151 455.687 9.97219 455.969 10.414C459.605 16.4072 459.262 32.0254 452.48 35.9532C449.729 37.5342 446.379 37.4171 443.644 38.6062C442.389 39.1572 442.597 41.7 441.369 42.107C439.849 42.6058 426.416 45.1239 425.654 44.9294C423.43 44.3061 423.39 40.3306 421.637 39.9934C419.258 39.5587 414.325 41.5079 413.096 40.3875C412.653 39.9928 413.219 37.1464 412.283 35.9697C411.277 34.6914 408.724 34.8019 407.949 32.7968C407.244 30.8933 406.724 18.8529 407.318 18.1713L407.349 18.1336Z" fill="#EC1D1D"/>
<path d="M407.349 18.1336C407.88 17.5275 410.669 18.3238 411.574 17.2649C412.261 16.4701 411.432 13.9715 412.235 12.8132C416.894 6.05259 439.79 3.99836 447.368 5.62628C447.964 5.76151 455.687 9.97219 455.969 10.414C459.605 16.4072 459.262 32.0254 452.48 35.9532C449.729 37.5342 446.379 37.4171 443.644 38.6062C442.389 39.1572 442.597 41.7 441.369 42.107C439.849 42.6058 426.416 45.1239 425.654 44.9294C423.43 44.3061 423.39 40.3306 421.637 39.9934C419.258 39.5587 414.325 41.5079 413.096 40.3875C412.653 39.9928 413.219 37.1464 412.283 35.9697C411.277 34.6914 408.724 34.8019 407.949 32.7968C407.244 30.8933 406.724 18.8529 407.318 18.1713L407.349 18.1336Z" fill="#EC1D1D"/>
<path d="M229.363 16.8632C233.685 17.62 233.947 13.0608 235.805 12.1128C239.393 10.2614 277.225 6.75547 281.841 7.49146C283.522 7.7621 282.274 11.4692 283.33 12.4228C284.149 13.1805 286.659 12.1507 287.513 12.9768C288.88 14.2985 286.402 18.3414 293.184 18.4267L293.785 32.3606C287.052 33.4069 289.862 37.0737 288.618 38.5812C287.373 40.0886 283.691 37.4771 283.485 44.8348L241.211 47.8407C240.288 40.8825 237.359 43.5739 235.792 42.16C226.997 34.1297 229.706 29.361 229.396 16.8608L229.363 16.8632Z" fill="#EC1D1D"/>
<path d="M229.363 16.8632C233.685 17.62 233.947 13.0608 235.805 12.1128C239.393 10.2614 277.225 6.75547 281.841 7.49146C283.522 7.7621 282.274 11.4692 283.33 12.4228C284.149 13.1805 286.659 12.1507 287.513 12.9768C288.88 14.2985 286.402 18.3414 293.184 18.4267L293.785 32.3606C287.052 33.4069 289.862 37.0737 288.618 38.5812C287.373 40.0886 283.691 37.4771 283.485 44.8348L241.211 47.8407C240.288 40.8825 237.359 43.5739 235.792 42.16C226.997 34.1297 229.706 29.361 229.396 16.8608L229.363 16.8632Z" fill="#EC1D1D"/>
<path d="M64.2163 16.3779C68.1615 17.0688 68.4003 12.9072 70.0965 12.0419C73.3711 10.3519 107.904 7.15181 112.117 7.82362C113.652 8.07065 112.513 11.4544 113.477 12.3249C114.224 13.0165 116.515 12.0765 117.294 12.8305C118.542 14.037 116.28 17.7272 122.471 17.8051L123.019 30.5238C116.874 31.4789 119.439 34.8258 118.303 36.2018C117.167 37.5778 113.806 35.194 113.618 41.91L75.0305 44.6537C74.1886 38.3024 71.515 40.7591 70.0844 39.4685C62.0569 32.1386 64.5292 27.7858 64.2461 16.3758L64.2163 16.3779Z" fill="#EC1D1D"/>
<path d="M64.2163 16.3779C68.1615 17.0688 68.4003 12.9072 70.0965 12.0419C73.3711 10.3519 107.904 7.15181 112.117 7.82362C113.652 8.07065 112.513 11.4544 113.477 12.3249C114.224 13.0165 116.515 12.0765 117.294 12.8305C118.542 14.037 116.28 17.7272 122.471 17.8051L123.019 30.5238C116.874 31.4789 119.439 34.8258 118.303 36.2018C117.167 37.5778 113.806 35.194 113.618 41.91L75.0305 44.6537C74.1886 38.3024 71.515 40.7591 70.0844 39.4685C62.0569 32.1386 64.5292 27.7858 64.2461 16.3758L64.2163 16.3779Z" fill="#EC1D1D"/>
<path d="M152.406 19.2157C152.937 18.6095 155.726 19.4059 156.631 18.3469C157.318 17.5521 156.489 15.0535 157.291 13.8953C161.95 7.13462 184.846 5.0804 192.425 6.70832C193.021 6.84354 200.744 11.0542 201.025 11.496C204.661 17.4892 204.319 33.1075 197.537 37.0352C194.786 38.6162 191.436 38.4991 188.7 39.6883C187.445 40.2393 187.654 42.782 186.425 43.1891C184.906 43.6878 171.473 46.2059 170.71 46.0115C168.487 45.3881 168.446 41.4126 166.694 41.0754C164.314 40.6407 159.382 42.5899 158.153 41.4696C157.71 41.0748 158.276 38.2284 157.34 37.0518C156.334 35.7735 153.781 35.884 153.006 33.8788C152.301 31.9753 151.781 19.935 152.375 19.2534L152.406 19.2157Z" fill="#EC1D1D"/>
<path d="M152.406 19.2157C152.937 18.6095 155.726 19.4059 156.631 18.3469C157.318 17.5521 156.489 15.0535 157.291 13.8953C161.95 7.13462 184.846 5.0804 192.425 6.70832C193.021 6.84354 200.744 11.0542 201.025 11.496C204.661 17.4892 204.319 33.1075 197.537 37.0352C194.786 38.6162 191.436 38.4991 188.7 39.6883C187.445 40.2393 187.654 42.782 186.425 43.1891C184.906 43.6878 171.473 46.2059 170.71 46.0115C168.487 45.3881 168.446 41.4126 166.694 41.0754C164.314 40.6407 159.382 42.5899 158.153 41.4696C157.71 41.0748 158.276 38.2284 157.34 37.0518C156.334 35.7735 153.781 35.884 153.006 33.8788C152.301 31.9753 151.781 19.935 152.375 19.2534L152.406 19.2157Z" fill="#EC1D1D"/>
<path d="M0.739691 17.4916C3.99248 18.3245 4.13989 13.7734 5.52469 12.8591C8.19789 11.0727 36.5608 8.24006 40.0339 9.05732C41.2992 9.35756 40.4022 13.0397 41.2053 14.0113C41.828 14.7829 43.7009 13.7984 44.3511 14.639C45.3913 15.984 43.5747 19.9798 48.6667 20.1853L49.2679 34.1192C44.2248 35.0454 46.3741 38.7591 45.4559 40.2434C44.5377 41.7276 41.7456 39.0528 41.6698 46.4012L9.96692 48.6555C9.19963 41.6862 7.02971 44.3237 5.83797 42.883C-0.850479 34.703 1.13147 29.986 0.764159 17.4899L0.739691 17.4916Z" fill="#EC1D1D"/>
<path d="M0.739691 17.4916C3.99248 18.3245 4.13989 13.7734 5.52469 12.8591C8.19789 11.0727 36.5608 8.24006 40.0339 9.05732C41.2992 9.35756 40.4022 13.0397 41.2053 14.0113C41.828 14.7829 43.7009 13.7984 44.3511 14.639C45.3913 15.984 43.5747 19.9798 48.6667 20.1853L49.2679 34.1192C44.2248 35.0454 46.3741 38.7591 45.4559 40.2434C44.5377 41.7276 41.7456 39.0528 41.6698 46.4012L9.96692 48.6555C9.19963 41.6862 7.02971 44.3237 5.83797 42.883C-0.850479 34.703 1.13147 29.986 0.764159 17.4899L0.739691 17.4916Z" fill="#EC1D1D"/>
<path d="M1252.07 15.7772C1256.4 16.5341 1256.66 11.9749 1258.52 11.0268C1262.1 9.17544 1299.94 5.66953 1304.55 6.40553C1306.23 6.67617 1304.99 10.3832 1306.04 11.3369C1306.86 12.0945 1309.37 11.0647 1310.22 11.8908C1311.59 13.2126 1309.11 17.2554 1315.89 17.3408L1316.5 31.2747C1309.76 32.321 1312.57 35.9878 1311.33 37.4952C1310.08 39.0027 1306.4 36.3911 1306.2 43.7489L1263.92 46.7547C1263 39.7965 1260.07 42.488 1258.5 41.074C1249.71 33.0438 1252.42 28.2751 1252.11 15.7749L1252.07 15.7772Z" fill="#EC1D1D"/>
<path d="M1252.07 15.7772C1256.4 16.5341 1256.66 11.9749 1258.52 11.0268C1262.1 9.17544 1299.94 5.66953 1304.55 6.40553C1306.23 6.67617 1304.99 10.3832 1306.04 11.3369C1306.86 12.0945 1309.37 11.0647 1310.22 11.8908C1311.59 13.2126 1309.11 17.2554 1315.89 17.3408L1316.5 31.2747C1309.76 32.321 1312.57 35.9878 1311.33 37.4952C1310.08 39.0027 1306.4 36.3911 1306.2 43.7489L1263.92 46.7547C1263 39.7965 1260.07 42.488 1258.5 41.074C1249.71 33.0438 1252.42 28.2751 1252.11 15.7749L1252.07 15.7772Z" fill="#EC1D1D"/>
<path d="M1086.94 15.2959C1090.88 15.9868 1091.12 11.8252 1092.82 10.9598C1096.09 9.26992 1130.63 6.06978 1134.84 6.74159C1136.37 6.98862 1135.24 10.3724 1136.2 11.2428C1136.95 11.9344 1139.24 10.9944 1140.02 11.7485C1141.26 12.955 1139 16.6452 1145.19 16.7231L1145.74 29.4418C1139.6 30.3968 1142.16 33.7438 1141.03 35.1198C1139.89 36.4958 1136.53 34.112 1136.34 40.828L1097.75 43.5717C1096.91 37.2204 1094.24 39.6771 1092.81 38.3864C1084.78 31.0565 1087.25 26.7038 1086.97 15.2938L1086.94 15.2959Z" fill="#EC1D1D"/>
<path d="M1086.94 15.2959C1090.88 15.9868 1091.12 11.8252 1092.82 10.9598C1096.09 9.26992 1130.63 6.06978 1134.84 6.74159C1136.37 6.98862 1135.24 10.3724 1136.2 11.2428C1136.95 11.9344 1139.24 10.9944 1140.02 11.7485C1141.26 12.955 1139 16.6452 1145.19 16.7231L1145.74 29.4418C1139.6 30.3968 1142.16 33.7438 1141.03 35.1198C1139.89 36.4958 1136.53 34.112 1136.34 40.828L1097.75 43.5717C1096.91 37.2204 1094.24 39.6771 1092.81 38.3864C1084.78 31.0565 1087.25 26.7038 1086.97 15.2938L1086.94 15.2959Z" fill="#EC1D1D"/>
<path d="M1175.12 18.1336C1175.65 17.5275 1178.44 18.3238 1179.35 17.2649C1180.03 16.4701 1179.2 13.9715 1180.01 12.8132C1184.67 6.05259 1207.56 3.99836 1215.14 5.62628C1215.74 5.76151 1223.46 9.97219 1223.74 10.414C1227.38 16.4072 1227.03 32.0254 1220.25 35.9532C1217.5 37.5342 1214.15 37.4171 1211.42 38.6062C1210.16 39.1572 1210.37 41.7 1209.14 42.107C1207.62 42.6058 1194.19 45.1239 1193.43 44.9294C1191.2 44.3061 1191.16 40.3306 1189.41 39.9934C1187.03 39.5587 1182.1 41.5079 1180.87 40.3875C1180.42 39.9928 1180.99 37.1464 1180.05 35.9697C1179.05 34.6914 1176.5 34.8019 1175.72 32.7968C1175.02 30.8933 1174.5 18.8529 1175.09 18.1713L1175.12 18.1336Z" fill="#EC1D1D"/>
<path d="M1175.12 18.1336C1175.65 17.5275 1178.44 18.3238 1179.35 17.2649C1180.03 16.4701 1179.2 13.9715 1180.01 12.8132C1184.67 6.05259 1207.56 3.99836 1215.14 5.62628C1215.74 5.76151 1223.46 9.97219 1223.74 10.414C1227.38 16.4072 1227.03 32.0254 1220.25 35.9532C1217.5 37.5342 1214.15 37.4171 1211.42 38.6062C1210.16 39.1572 1210.37 41.7 1209.14 42.107C1207.62 42.6058 1194.19 45.1239 1193.43 44.9294C1191.2 44.3061 1191.16 40.3306 1189.41 39.9934C1187.03 39.5587 1182.1 41.5079 1180.87 40.3875C1180.42 39.9928 1180.99 37.1464 1180.05 35.9697C1179.05 34.6914 1176.5 34.8019 1175.72 32.7968C1175.02 30.8933 1174.5 18.8529 1175.09 18.1713L1175.12 18.1336Z" fill="#EC1D1D"/>
<path d="M997.453 16.9335C1001.78 17.6904 1002.04 13.1311 1003.9 12.1831C1007.48 10.3317 1045.31 6.82578 1049.93 7.56178C1051.61 7.83242 1050.36 11.5395 1051.42 12.4931C1052.24 13.2508 1054.75 12.221 1055.6 13.0471C1056.97 14.3688 1054.49 18.4117 1061.27 18.497L1061.87 32.4309C1055.14 33.4773 1057.95 37.144 1056.71 38.6515C1055.46 40.1589 1051.78 37.5474 1051.57 44.9051L1009.3 47.911C1008.38 40.9528 1005.45 43.6442 1003.88 42.2303C995.087 34.2 997.796 29.4313 997.486 16.9311L997.453 16.9335Z" fill="#EC1D1D"/>
<path d="M997.453 16.9335C1001.78 17.6904 1002.04 13.1311 1003.9 12.1831C1007.48 10.3317 1045.31 6.82578 1049.93 7.56178C1051.61 7.83242 1050.36 11.5395 1051.42 12.4931C1052.24 13.2508 1054.75 12.221 1055.6 13.0471C1056.97 14.3688 1054.49 18.4117 1061.27 18.497L1061.87 32.4309C1055.14 33.4773 1057.95 37.144 1056.71 38.6515C1055.46 40.1589 1051.78 37.5474 1051.57 44.9051L1009.3 47.911C1008.38 40.9528 1005.45 43.6442 1003.88 42.2303C995.087 34.2 997.796 29.4313 997.486 16.9311L997.453 16.9335Z" fill="#EC1D1D"/>
<path d="M831.986 16.3779C835.931 17.0688 836.17 12.9072 837.866 12.0419C841.141 10.3519 875.673 7.15181 879.886 7.82362C881.421 8.07065 880.282 11.4544 881.246 12.3249C881.993 13.0165 884.284 12.0765 885.064 12.8305C886.312 14.037 884.05 17.7272 890.24 17.8051L890.789 30.5238C884.643 31.4789 887.209 34.8258 886.072 36.2018C884.936 37.5778 881.576 35.194 881.387 41.91L842.8 44.6537C841.958 38.3024 839.285 40.7591 837.854 39.4685C829.826 32.1386 832.299 27.7858 832.016 16.3758L831.986 16.3779Z" fill="#EC1D1D"/>
<path d="M831.986 16.3779C835.931 17.0688 836.17 12.9072 837.866 12.0419C841.141 10.3519 875.673 7.15181 879.886 7.82362C881.421 8.07065 880.282 11.4544 881.246 12.3249C881.993 13.0165 884.284 12.0765 885.064 12.8305C886.312 14.037 884.05 17.7272 890.24 17.8051L890.789 30.5238C884.643 31.4789 887.209 34.8258 886.072 36.2018C884.936 37.5778 881.576 35.194 881.387 41.91L842.8 44.6537C841.958 38.3024 839.285 40.7591 837.854 39.4685C829.826 32.1386 832.299 27.7858 832.016 16.3758L831.986 16.3779Z" fill="#EC1D1D"/>
<path d="M920.179 19.2157C920.711 18.6095 923.499 19.4059 924.404 18.3469C925.091 17.5521 924.262 15.0535 925.065 13.8953C929.724 7.13462 952.62 5.0804 960.199 6.70832C960.795 6.84354 968.517 11.0542 968.799 11.496C972.435 17.4892 972.092 33.1075 965.311 37.0352C962.559 38.6162 959.21 38.4991 956.474 39.6883C955.219 40.2393 955.427 42.782 954.199 43.1891C952.679 43.6878 939.246 46.2059 938.484 46.0115C936.26 45.3881 936.22 41.4126 934.467 41.0754C932.088 40.6407 927.155 42.5899 925.927 41.4696C925.483 41.0748 926.049 38.2284 925.113 37.0518C924.107 35.7735 921.554 35.884 920.779 33.8788C920.074 31.9753 919.555 19.935 920.148 19.2534L920.179 19.2157Z" fill="#EC1D1D"/>
<path d="M920.179 19.2157C920.711 18.6095 923.499 19.4059 924.404 18.3469C925.091 17.5521 924.262 15.0535 925.065 13.8953C929.724 7.13462 952.62 5.0804 960.199 6.70832C960.795 6.84354 968.517 11.0542 968.799 11.496C972.435 17.4892 972.092 33.1075 965.311 37.0352C962.559 38.6162 959.21 38.4991 956.474 39.6883C955.219 40.2393 955.427 42.782 954.199 43.1891C952.679 43.6878 939.246 46.2059 938.484 46.0115C936.26 45.3881 936.22 41.4126 934.467 41.0754C932.088 40.6407 927.155 42.5899 925.927 41.4696C925.483 41.0748 926.049 38.2284 925.113 37.0518C924.107 35.7735 921.554 35.884 920.779 33.8788C920.074 31.9753 919.555 19.935 920.148 19.2534L920.179 19.2157Z" fill="#EC1D1D"/>
<path d="M738.68 17.9139C743.002 18.6708 743.263 14.1116 745.122 13.1636C748.709 11.3122 786.541 7.80625 791.157 8.54224C792.839 8.81288 791.591 12.5199 792.647 13.4736C793.465 14.2313 795.975 13.2014 796.829 14.0275C798.196 15.3493 795.718 19.3921 802.5 19.4775L803.101 33.4114C796.368 34.4577 799.179 38.1245 797.934 39.632C796.689 41.1394 793.008 38.5278 792.801 45.8856L750.527 48.8915C749.605 41.9332 746.676 44.6247 745.108 43.2107C736.314 35.1805 739.022 30.4118 738.712 17.9116L738.68 17.9139Z" fill="#EC1D1D"/>
<path d="M738.68 17.9139C743.002 18.6708 743.263 14.1116 745.122 13.1636C748.709 11.3122 786.541 7.80625 791.157 8.54224C792.839 8.81288 791.591 12.5199 792.647 13.4736C793.465 14.2313 795.975 13.2014 796.829 14.0275C798.196 15.3493 795.718 19.3921 802.5 19.4775L803.101 33.4114C796.368 34.4577 799.179 38.1245 797.934 39.632C796.689 41.1394 793.008 38.5278 792.801 45.8856L750.527 48.8915C749.605 41.9332 746.676 44.6247 745.108 43.2107C736.314 35.1805 739.022 30.4118 738.712 17.9116L738.68 17.9139Z" fill="#EC1D1D"/>
<path d="M573.548 17.4424C577.493 18.1333 577.732 13.9717 579.429 13.1063C582.703 11.4164 617.236 8.21626 621.449 8.88807C622.984 9.13511 621.845 12.5188 622.809 13.3893C623.556 14.0809 625.847 13.1409 626.626 13.895C627.874 15.1015 625.612 18.7917 631.803 18.8696L632.351 31.5882C626.206 32.5433 628.771 35.8903 627.635 37.2663C626.499 38.6422 623.138 36.2584 622.95 42.9745L584.363 45.7182C583.521 39.3668 580.847 41.8235 579.416 40.5329C571.389 33.203 573.861 28.8502 573.578 17.4403L573.548 17.4424Z" fill="#EC1D1D"/>
<path d="M573.548 17.4424C577.493 18.1333 577.732 13.9717 579.429 13.1063C582.703 11.4164 617.236 8.21626 621.449 8.88807C622.984 9.13511 621.845 12.5188 622.809 13.3893C623.556 14.0809 625.847 13.1409 626.626 13.895C627.874 15.1015 625.612 18.7917 631.803 18.8696L632.351 31.5882C626.206 32.5433 628.771 35.8903 627.635 37.2663C626.499 38.6422 623.138 36.2584 622.95 42.9745L584.363 45.7182C583.521 39.3668 580.847 41.8235 579.416 40.5329C571.389 33.203 573.861 28.8502 573.578 17.4403L573.548 17.4424Z" fill="#EC1D1D"/>
<path d="M661.734 20.2704C662.265 19.6642 665.054 20.4605 665.959 19.4016C666.646 18.6068 665.817 16.1082 666.619 14.95C671.279 8.18931 694.174 6.13508 701.753 7.763C702.349 7.89823 710.072 12.1089 710.354 12.5507C713.989 18.5439 713.647 34.1622 706.865 38.0899C704.114 39.6709 700.764 39.5538 698.029 40.7429C696.774 41.294 696.982 43.8367 695.753 44.2437C694.234 44.7425 680.801 47.2606 680.038 47.0662C677.815 46.4428 677.774 42.4673 676.022 42.1301C673.642 41.6954 668.71 43.6446 667.481 42.5243C667.038 42.1295 667.604 39.2831 666.668 38.1064C665.662 36.8282 663.109 36.9386 662.334 34.9335C661.629 33.03 661.109 20.9897 661.703 20.3081L661.734 20.2704Z" fill="#EC1D1D"/>
<path d="M661.734 20.2704C662.265 19.6642 665.054 20.4605 665.959 19.4016C666.646 18.6068 665.817 16.1082 666.619 14.95C671.279 8.18931 694.174 6.13508 701.753 7.763C702.349 7.89823 710.072 12.1089 710.354 12.5507C713.989 18.5439 713.647 34.1622 706.865 38.0899C704.114 39.6709 700.764 39.5538 698.029 40.7429C696.774 41.294 696.982 43.8367 695.753 44.2437C694.234 44.7425 680.801 47.2606 680.038 47.0662C677.815 46.4428 677.774 42.4673 676.022 42.1301C673.642 41.6954 668.71 43.6446 667.481 42.5243C667.038 42.1295 667.604 39.2831 666.668 38.1064C665.662 36.8282 663.109 36.9386 662.334 34.9335C661.629 33.03 661.109 20.9897 661.703 20.3081L661.734 20.2704Z" fill="#EC1D1D"/>
<path d="M1859.08 10.4912C1863.03 11.1821 1863.27 7.0205 1864.96 6.15516C1868.24 4.46523 1902.77 1.26509 1906.98 1.9369C1908.52 2.18393 1907.38 5.56767 1908.34 6.43814C1909.09 7.12975 1911.38 6.18974 1912.16 6.9438C1913.41 8.15028 1911.15 11.8405 1917.34 11.9184L1917.89 24.6371C1911.74 25.5921 1914.31 28.9391 1913.17 30.3151C1912.03 31.6911 1908.67 29.3073 1908.48 36.0233L1869.9 38.767C1869.06 32.4157 1866.38 34.8724 1864.95 33.5818C1856.92 26.2519 1859.4 21.8991 1859.11 10.4891L1859.08 10.4912Z" fill="#EC1D1D"/>
<path d="M1859.08 10.4912C1863.03 11.1821 1863.27 7.0205 1864.96 6.15516C1868.24 4.46523 1902.77 1.26509 1906.98 1.9369C1908.52 2.18393 1907.38 5.56767 1908.34 6.43814C1909.09 7.12975 1911.38 6.18974 1912.16 6.9438C1913.41 8.15028 1911.15 11.8405 1917.34 11.9184L1917.89 24.6371C1911.74 25.5921 1914.31 28.9391 1913.17 30.3151C1912.03 31.6911 1908.67 29.3073 1908.48 36.0233L1869.9 38.767C1869.06 32.4157 1866.38 34.8724 1864.95 33.5818C1856.92 26.2519 1859.4 21.8991 1859.11 10.4891L1859.08 10.4912Z" fill="#EC1D1D"/>
<path d="M1769.28 12.0546C1773.6 12.8114 1773.86 8.25221 1775.72 7.30418C1779.31 5.45278 1817.14 1.94687 1821.75 2.68287C1823.44 2.95351 1822.19 6.66056 1823.24 7.6142C1824.06 8.37189 1826.57 7.34207 1827.43 8.16817C1828.79 9.48994 1826.32 13.5328 1833.1 13.6181L1833.7 27.552C1826.97 28.5984 1829.78 32.2651 1828.53 33.7726C1827.29 35.28 1823.61 32.6685 1823.4 40.0262L1781.12 43.0321C1780.2 36.0739 1777.27 38.7653 1775.71 37.3514C1766.91 29.3211 1769.62 24.5524 1769.31 12.0522L1769.28 12.0546Z" fill="#EC1D1D"/>
<path d="M1769.28 12.0546C1773.6 12.8114 1773.86 8.25221 1775.72 7.30418C1779.31 5.45278 1817.14 1.94687 1821.75 2.68287C1823.44 2.95351 1822.19 6.66056 1823.24 7.6142C1824.06 8.37189 1826.57 7.34207 1827.43 8.16817C1828.79 9.48994 1826.32 13.5328 1833.1 13.6181L1833.7 27.552C1826.97 28.5984 1829.78 32.2651 1828.53 33.7726C1827.29 35.28 1823.61 32.6685 1823.4 40.0262L1781.12 43.0321C1780.2 36.0739 1777.27 38.7653 1775.71 37.3514C1766.91 29.3211 1769.62 24.5524 1769.31 12.0522L1769.28 12.0546Z" fill="#EC1D1D"/>
<path d="M1604.13 11.5674C1608.08 12.2583 1608.31 8.09667 1610.01 7.23133C1613.29 5.5414 1647.82 2.34126 1652.03 3.01307C1653.57 3.26011 1652.43 6.64385 1653.39 7.51431C1654.14 8.20592 1656.43 7.26592 1657.21 8.01997C1658.46 9.22645 1656.19 12.9167 1662.38 12.9946L1662.93 25.7132C1656.79 26.6683 1659.35 30.0153 1658.22 31.3913C1657.08 32.7672 1653.72 30.3834 1653.53 37.0995L1614.94 39.8432C1614.1 33.4918 1611.43 35.9485 1610 34.6579C1601.97 27.328 1604.44 22.9752 1604.16 11.5653L1604.13 11.5674Z" fill="#EC1D1D"/>
<path d="M1604.13 11.5674C1608.08 12.2583 1608.31 8.09667 1610.01 7.23133C1613.29 5.5414 1647.82 2.34126 1652.03 3.01307C1653.57 3.26011 1652.43 6.64385 1653.39 7.51431C1654.14 8.20592 1656.43 7.26592 1657.21 8.01997C1658.46 9.22645 1656.19 12.9167 1662.38 12.9946L1662.93 25.7132C1656.79 26.6683 1659.35 30.0153 1658.22 31.3913C1657.08 32.7672 1653.72 30.3834 1653.53 37.0995L1614.94 39.8432C1614.1 33.4918 1611.43 35.9485 1610 34.6579C1601.97 27.328 1604.44 22.9752 1604.16 11.5653L1604.13 11.5674Z" fill="#EC1D1D"/>
<path d="M1692.32 14.4071C1692.86 13.801 1695.64 14.5973 1696.55 13.5383C1697.24 12.7435 1696.41 10.2449 1697.21 9.08668C1701.87 2.32603 1724.76 0.271802 1732.34 1.89972C1732.94 2.03495 1740.66 6.24563 1740.94 6.6874C1744.58 12.6806 1744.24 28.2989 1737.46 32.2267C1734.7 33.8076 1731.35 33.6906 1728.62 34.8797C1727.36 35.4307 1727.57 37.9734 1726.34 38.3805C1724.82 38.8792 1711.39 41.3973 1710.63 41.2029C1708.4 40.5795 1708.36 36.604 1706.61 36.2668C1704.23 35.8321 1699.3 37.7813 1698.07 36.661C1697.63 36.2662 1698.19 33.4198 1697.26 32.2432C1696.25 30.9649 1693.7 31.0754 1692.92 29.0702C1692.22 27.1667 1691.7 15.1264 1692.29 14.4448L1692.32 14.4071Z" fill="#EC1D1D"/>
<path d="M1692.32 14.4071C1692.86 13.801 1695.64 14.5973 1696.55 13.5383C1697.24 12.7435 1696.41 10.2449 1697.21 9.08668C1701.87 2.32603 1724.76 0.271802 1732.34 1.89972C1732.94 2.03495 1740.66 6.24563 1740.94 6.6874C1744.58 12.6806 1744.24 28.2989 1737.46 32.2267C1734.7 33.8076 1731.35 33.6906 1728.62 34.8797C1727.36 35.4307 1727.57 37.9734 1726.34 38.3805C1724.82 38.8792 1711.39 41.3973 1710.63 41.2029C1708.4 40.5795 1708.36 36.604 1706.61 36.2668C1704.23 35.8321 1699.3 37.7813 1698.07 36.661C1697.63 36.2662 1698.19 33.4198 1697.26 32.2432C1696.25 30.9649 1693.7 31.0754 1692.92 29.0702C1692.22 27.1667 1691.7 15.1264 1692.29 14.4448L1692.32 14.4071Z" fill="#EC1D1D"/>
<path d="M1510.82 13.1092C1515.14 13.8661 1515.4 9.3069 1517.26 8.35887C1520.85 6.50747 1558.68 3.00156 1563.3 3.73756C1564.98 4.0082 1563.73 7.71525 1564.79 8.66889C1565.61 9.42658 1568.12 8.39676 1568.97 9.22286C1570.34 10.5446 1567.86 14.5874 1574.64 14.6728L1575.24 28.6067C1568.51 29.653 1571.32 33.3198 1570.07 34.8273C1568.83 36.3347 1565.15 33.7232 1564.94 41.0809L1522.67 44.0868C1521.75 37.1286 1518.82 39.82 1517.25 38.4061C1508.45 30.3758 1511.16 25.6071 1510.85 13.1069L1510.82 13.1092Z" fill="#EC1D1D"/>
<path d="M1510.82 13.1092C1515.14 13.8661 1515.4 9.3069 1517.26 8.35887C1520.85 6.50747 1558.68 3.00156 1563.3 3.73756C1564.98 4.0082 1563.73 7.71525 1564.79 8.66889C1565.61 9.42658 1568.12 8.39676 1568.97 9.22286C1570.34 10.5446 1567.86 14.5874 1574.64 14.6728L1575.24 28.6067C1568.51 29.653 1571.32 33.3198 1570.07 34.8273C1568.83 36.3347 1565.15 33.7232 1564.94 41.0809L1522.67 44.0868C1521.75 37.1286 1518.82 39.82 1517.25 38.4061C1508.45 30.3758 1511.16 25.6071 1510.85 13.1069L1510.82 13.1092Z" fill="#EC1D1D"/>
<path d="M1345.69 12.6338C1349.63 13.3247 1349.87 9.16308 1351.57 8.29774C1354.84 6.60781 1389.38 3.40767 1393.59 4.07948C1395.12 4.32651 1393.99 7.71025 1394.95 8.58072C1395.7 9.27233 1397.99 8.33232 1398.77 9.08637C1400.01 10.2929 1397.75 13.9831 1403.94 14.061L1404.49 26.7797C1398.35 27.7347 1400.91 31.0817 1399.78 32.4577C1398.64 33.8336 1395.28 31.4499 1395.09 38.1659L1356.5 40.9096C1355.66 34.5582 1352.99 37.0149 1351.56 35.7243C1343.53 28.3944 1346 24.0416 1345.72 12.6317L1345.69 12.6338Z" fill="#EC1D1D"/>
<path d="M1345.69 12.6338C1349.63 13.3247 1349.87 9.16308 1351.57 8.29774C1354.84 6.60781 1389.38 3.40767 1393.59 4.07948C1395.12 4.32651 1393.99 7.71025 1394.95 8.58072C1395.7 9.27233 1397.99 8.33232 1398.77 9.08637C1400.01 10.2929 1397.75 13.9831 1403.94 14.061L1404.49 26.7797C1398.35 27.7347 1400.91 31.0817 1399.78 32.4577C1398.64 33.8336 1395.28 31.4499 1395.09 38.1659L1356.5 40.9096C1355.66 34.5582 1352.99 37.0149 1351.56 35.7243C1343.53 28.3944 1346 24.0416 1345.72 12.6317L1345.69 12.6338Z" fill="#EC1D1D"/>
<path d="M1433.87 15.4696C1434.41 14.8635 1437.19 15.6598 1438.1 14.6008C1438.79 13.806 1437.96 11.3074 1438.76 10.1492C1443.42 3.38853 1466.32 1.3343 1473.89 2.96222C1474.49 3.09745 1482.21 7.30813 1482.49 7.7499C1486.13 13.7431 1485.79 29.3614 1479.01 33.2892C1476.25 34.8701 1472.9 34.7531 1470.17 35.9422C1468.91 36.4932 1469.12 39.0359 1467.89 39.443C1466.37 39.9417 1452.94 42.4598 1452.18 42.2654C1449.96 41.642 1449.91 37.6665 1448.16 37.3293C1445.78 36.8946 1440.85 38.8438 1439.62 37.7235C1439.18 37.3287 1439.74 34.4823 1438.81 33.3057C1437.8 32.0274 1435.25 32.1379 1434.47 30.1327C1433.77 28.2292 1433.25 16.1889 1433.84 15.5073L1433.87 15.4696Z" fill="#EC1D1D"/>
<path d="M1433.87 15.4696C1434.41 14.8635 1437.19 15.6598 1438.1 14.6008C1438.79 13.806 1437.96 11.3074 1438.76 10.1492C1443.42 3.38853 1466.32 1.3343 1473.89 2.96222C1474.49 3.09745 1482.21 7.30813 1482.49 7.7499C1486.13 13.7431 1485.79 29.3614 1479.01 33.2892C1476.25 34.8701 1472.9 34.7531 1470.17 35.9422C1468.91 36.4932 1469.12 39.0359 1467.89 39.443C1466.37 39.9417 1452.94 42.4598 1452.18 42.2654C1449.96 41.642 1449.91 37.6665 1448.16 37.3293C1445.78 36.8946 1440.85 38.8438 1439.62 37.7235C1439.18 37.3287 1439.74 34.4823 1438.81 33.3057C1437.8 32.0274 1435.25 32.1379 1434.47 30.1327C1433.77 28.2292 1433.25 16.1889 1433.84 15.5073L1433.87 15.4696Z" fill="#EC1D1D"/>
</svg>
