<svg width="3780" height="466" viewBox="0 0 3780 466" fill="none" xmlns="http://www.w3.org/2000/svg">
<g clip-path="url(#clip0_1175_789)">
<rect width="3780" height="466" fill="white"/>
<rect width="1890" height="466" fill="black"/>
<path d="M1728.5 444.793V220.933C1728.5 200.653 1723.56 185.703 1713.68 176.083C1703.8 166.203 1691.84 161.263 1677.8 161.263C1663.5 161.263 1650.37 165.293 1638.41 173.353C1626.45 181.413 1616.83 194.413 1609.55 212.353C1602.53 230.033 1599.02 253.563 1599.02 282.943H1561.19C1561.19 227.823 1567.69 182.973 1580.69 148.393C1593.95 113.813 1611.89 88.4629 1634.51 72.343C1657.39 56.2229 1683.26 48.1629 1712.12 48.1629C1745.14 48.1629 1772.05 55.5729 1792.85 70.393C1813.91 85.2129 1829.38 105.623 1839.26 131.623C1849.14 157.623 1854.08 187.393 1854.08 220.933V444.793H1728.5ZM1474.22 444.793V60.6429H1584.2L1599.02 124.213V444.793H1474.22Z" fill="white"/>
<path d="M1289.39 457.273C1257.15 457.273 1226.86 448.953 1198.52 432.313C1170.18 415.673 1147.17 391.883 1129.49 360.943C1112.07 330.003 1103.36 293.343 1103.36 250.963C1103.36 208.583 1112.07 172.313 1129.49 142.153C1146.91 111.733 1169.79 88.4629 1198.13 72.343C1226.47 56.2229 1256.89 48.1629 1289.39 48.1629C1321.63 48.1629 1349.71 54.6629 1373.63 67.6629C1397.55 80.4029 1416.79 97.693 1431.35 119.533C1446.17 141.373 1455.79 166.073 1460.21 193.633C1464.89 220.933 1463.98 249.143 1457.48 278.263H1202.03V215.083H1366.22L1348.28 226.783C1349.06 217.683 1348.67 208.453 1347.11 199.093C1345.81 189.733 1343.08 181.153 1338.92 173.353C1334.76 165.293 1328.78 158.923 1320.98 154.243C1313.44 149.303 1303.69 146.833 1291.73 146.833C1278.47 146.833 1266.9 150.083 1257.02 156.583C1247.4 162.823 1239.86 172.053 1234.4 184.273C1229.2 196.233 1226.6 210.923 1226.6 228.343V277.483C1226.6 293.863 1228.94 308.033 1233.62 319.993C1238.3 331.953 1245.19 341.313 1254.29 348.073C1263.65 354.573 1275.35 357.823 1289.39 357.823C1300.83 357.823 1310.84 355.483 1319.42 350.803C1328 346.123 1333.98 338.713 1337.36 328.573H1461.38C1457.48 352.493 1447.86 374.203 1432.52 393.703C1417.44 413.203 1397.68 428.673 1373.24 440.113C1349.06 451.553 1321.11 457.273 1289.39 457.273Z" fill="white"/>
<path fill-rule="evenodd" clip-rule="evenodd" d="M924.439 430.291C952.779 446.931 983.069 455.251 1015.31 455.251C1047.03 455.251 1074.98 449.531 1099.16 438.091C1123.6 426.651 1143.36 411.181 1158.44 391.681C1173.78 372.181 1183.4 350.471 1187.3 326.551H1063.28C1059.9 336.691 1053.92 344.101 1045.34 348.781C1036.76 353.461 1026.75 355.801 1015.31 355.801C1001.27 355.801 989.569 352.551 980.209 346.051C971.109 339.291 964.219 329.931 959.539 317.971C954.933 306.201 952.594 292.291 952.521 276.241H1183.4C1189.9 247.121 1190.81 218.911 1186.13 191.611C1181.71 164.051 1172.09 139.351 1157.27 117.511C1142.71 95.6706 1123.47 78.3806 1099.55 65.6406C1075.63 52.6406 1047.55 46.1406 1015.31 46.1406C1001.32 46.1406 987.714 47.6342 974.494 50.6213L863.32 371.755C879.779 396.518 900.151 416.03 924.439 430.291ZM953.066 213.061C954.078 201.315 956.495 191.045 960.319 182.251C965.779 170.031 973.319 160.801 982.939 154.561C992.819 148.061 1004.39 144.811 1017.65 144.811C1029.61 144.811 1039.36 147.281 1046.9 152.221C1054.7 156.901 1060.68 163.271 1064.84 171.331C1069 179.131 1071.73 187.711 1073.03 197.071C1073.92 202.443 1074.43 207.773 1074.56 213.061H953.066Z" fill="white"/>
<path d="M527.899 51.85H672.589L735.379 329.53H729.919L792.709 51.85H937.009L804.019 436H660.889L527.899 51.85Z" fill="white"/>
<path d="M636.011 441.15H491.321L428.531 163.47H433.991L371.201 441.15H226.901L359.891 57H503.021L636.011 441.15Z" fill="white"/>
<path d="M38.91 436V49.51H163.71V436H38.91ZM137.19 272.2C137.19 219.94 143.82 177.04 157.08 143.5C170.34 109.96 187.11 85.13 207.39 69.01C227.67 52.89 248.34 44.83 269.4 44.83C273.56 44.83 277.72 45.09 281.88 45.61C286.04 45.87 289.94 46.39 293.58 47.17L294.75 172.75C288.25 171.97 281.62 171.45 274.86 171.19C268.1 170.67 261.73 170.41 255.75 170.41C237.55 170.41 221.43 173.79 207.39 180.55C193.61 187.31 182.82 198.1 175.02 212.92C167.48 227.74 163.71 247.5 163.71 272.2H137.19Z" fill="white"/>
<path d="M3617.5 444.793V220.933C3617.5 200.653 3612.56 185.703 3602.68 176.083C3592.8 166.203 3580.84 161.263 3566.8 161.263C3552.5 161.263 3539.37 165.293 3527.41 173.353C3515.45 181.413 3505.83 194.413 3498.55 212.353C3491.53 230.033 3488.02 253.563 3488.02 282.943H3450.19C3450.19 227.823 3456.69 182.973 3469.69 148.393C3482.95 113.813 3500.89 88.4629 3523.51 72.343C3546.39 56.2229 3572.26 48.1629 3601.12 48.1629C3634.14 48.1629 3661.05 55.5729 3681.85 70.393C3702.91 85.2129 3718.38 105.623 3728.26 131.623C3738.14 157.623 3743.08 187.393 3743.08 220.933V444.793H3617.5ZM3363.22 444.793V60.6429H3473.2L3488.02 124.213V444.793H3363.22Z" fill="black"/>
<path d="M3178.39 457.273C3146.15 457.273 3115.86 448.953 3087.52 432.313C3059.18 415.673 3036.17 391.883 3018.49 360.943C3001.07 330.003 2992.36 293.343 2992.36 250.963C2992.36 208.583 3001.07 172.313 3018.49 142.153C3035.91 111.733 3058.79 88.4629 3087.13 72.343C3115.47 56.2229 3145.89 48.1629 3178.39 48.1629C3210.63 48.1629 3238.71 54.6629 3262.63 67.6629C3286.55 80.4029 3305.79 97.693 3320.35 119.533C3335.17 141.373 3344.79 166.073 3349.21 193.633C3353.89 220.933 3352.98 249.143 3346.48 278.263H3091.03V215.083H3255.22L3237.28 226.783C3238.06 217.683 3237.67 208.453 3236.11 199.093C3234.81 189.733 3232.08 181.153 3227.92 173.353C3223.76 165.293 3217.78 158.923 3209.98 154.243C3202.44 149.303 3192.69 146.833 3180.73 146.833C3167.47 146.833 3155.9 150.083 3146.02 156.583C3136.4 162.823 3128.86 172.053 3123.4 184.273C3118.2 196.233 3115.6 210.923 3115.6 228.343V277.483C3115.6 293.863 3117.94 308.033 3122.62 319.993C3127.3 331.953 3134.19 341.313 3143.29 348.073C3152.65 354.573 3164.35 357.823 3178.39 357.823C3189.83 357.823 3199.84 355.483 3208.42 350.803C3217 346.123 3222.98 338.713 3226.36 328.573H3350.38C3346.48 352.493 3336.86 374.203 3321.52 393.703C3306.44 413.203 3286.68 428.673 3262.24 440.113C3238.06 451.553 3210.11 457.273 3178.39 457.273Z" fill="black"/>
<path fill-rule="evenodd" clip-rule="evenodd" d="M2813.44 430.291C2841.78 446.931 2872.07 455.251 2904.31 455.251C2936.03 455.251 2963.98 449.531 2988.16 438.091C3012.6 426.651 3032.36 411.181 3047.44 391.681C3062.78 372.181 3072.4 350.471 3076.3 326.551H2952.28C2948.9 336.691 2942.92 344.101 2934.34 348.781C2925.76 353.461 2915.75 355.801 2904.31 355.801C2890.27 355.801 2878.57 352.551 2869.21 346.051C2860.11 339.291 2853.22 329.931 2848.54 317.971C2843.93 306.201 2841.59 292.291 2841.52 276.241H3072.4C3078.9 247.121 3079.81 218.911 3075.13 191.611C3070.71 164.051 3061.09 139.351 3046.27 117.511C3031.71 95.6706 3012.47 78.3806 2988.55 65.6406C2964.63 52.6406 2936.55 46.1406 2904.31 46.1406C2890.32 46.1406 2876.71 47.6342 2863.49 50.6213L2752.32 371.755C2768.78 396.518 2789.15 416.03 2813.44 430.291ZM2842.07 213.061C2843.08 201.315 2845.5 191.045 2849.32 182.251C2854.78 170.031 2862.32 160.801 2871.94 154.561C2881.82 148.061 2893.39 144.811 2906.65 144.811C2918.61 144.811 2928.36 147.281 2935.9 152.221C2943.7 156.901 2949.68 163.271 2953.84 171.331C2958 179.131 2960.73 187.711 2962.03 197.071C2962.92 202.443 2963.43 207.773 2963.56 213.061H2842.07Z" fill="black"/>
<path d="M2416.9 51.85H2561.59L2624.38 329.53H2618.92L2681.71 51.85H2826.01L2693.02 436H2549.89L2416.9 51.85Z" fill="black"/>
<path d="M2525.01 441.15H2380.32L2317.53 163.47H2322.99L2260.2 441.15H2115.9L2248.89 57H2392.02L2525.01 441.15Z" fill="black"/>
<path d="M1927.91 436V49.51H2052.71V436H1927.91ZM2026.19 272.2C2026.19 219.94 2032.82 177.04 2046.08 143.5C2059.34 109.96 2076.11 85.13 2096.39 69.01C2116.67 52.89 2137.34 44.83 2158.4 44.83C2162.56 44.83 2166.72 45.09 2170.88 45.61C2175.04 45.87 2178.94 46.39 2182.58 47.17L2183.75 172.75C2177.25 171.97 2170.62 171.45 2163.86 171.19C2157.1 170.67 2150.73 170.41 2144.75 170.41C2126.55 170.41 2110.43 173.79 2096.39 180.55C2082.61 187.31 2071.82 198.1 2064.02 212.92C2056.48 227.74 2052.71 247.5 2052.71 272.2H2026.19Z" fill="black"/>
</g>
<defs>
<clipPath id="clip0_1175_789">
<rect width="3780" height="466" fill="white"/>
</clipPath>
</defs>
</svg>
